<?xml version="1.0" encoding="utf-8"?>
<!-- Generator: Adobe Illustrator 24.2.1, SVG Export Plug-In . SVG Version: 6.00 Build 0)  -->
<svg version="1.1" id="Layer_1" xmlns="http://www.w3.org/2000/svg" xmlns:xlink="http://www.w3.org/1999/xlink" x="0px" y="0px"
	 viewBox="0 0 288.3 143.7" enable-background="new 0 0 288.3 143.7" xml:space="preserve">
<g>
	<g>
		<g>
			<path fill="#FFFFFF" d="M265.9,23.6c-0.4-1.6-1.9-5.7-6.3-7.1l-0.3-0.1L144.1,3.5h0h0L29,16.4l-0.3,0.1c-4.4,1.4-5.9,5.5-6.3,7.1
				l-7.2,27.7L22.4,79c0.7,3.3,3.2,6.1,6.3,7.2l0.3,0.1l114.9,12.9l0.3,0l0.3,0l114.9-12.9l0.3-0.1c3.1-1.1,5.6-3.9,6.3-7.2
				l7.2-27.6L265.9,23.6z"/>
		</g>
		<g>
			<path d="M265.9,23.6c-0.4-1.6-1.9-5.7-6.3-7.1l-0.3-0.1L144.1,3.5h0h0L29,16.4l-0.3,0.1c-4.4,1.4-5.9,5.5-6.3,7.1l-7.2,27.7
				L22.4,79c0.7,3.3,3.2,6.1,6.3,7.2l0.3,0.1l114.9,12.9l0.3,0l0.3,0l114.9-12.9l0.3-0.1c3.1-1.1,5.6-3.9,6.3-7.2l7.2-27.6
				L265.9,23.6z M260.2,77.7c-0.3,1.2-1.2,2.4-2.2,2.8L144.1,93.3L30.3,80.6c-1.1-0.5-2-1.6-2.2-2.8l-6.8-26.4L28,25.1
				c0.2-0.9,0.8-2.3,2.2-2.9L144.1,9.4L258,22.1c1.4,0.6,2,2.1,2.2,2.9l6.8,26.3L260.2,77.7z"/>
		</g>
		<g>
			<path fill-rule="evenodd" clip-rule="evenodd" d="M255.3,73.7c0-2.1-1.5-3.4-3.2-3.4c-1.8,0-3.2,1.4-3.2,3.4
				c0,2.1,1.4,3.5,3.2,3.4C253.8,77.2,255.3,75.8,255.3,73.7L255.3,73.7z M256.5,73.7c0,2.8-2.1,4.5-4.5,4.5c-2.4,0-4.5-1.7-4.5-4.5
				c0-2.8,2.1-4.5,4.5-4.5C254.4,69.2,256.5,70.9,256.5,73.7L256.5,73.7z"/>
			<path fill-rule="evenodd" clip-rule="evenodd" d="M251.3,73.3h0.9c0.5,0,0.7-0.1,0.7-0.6c0-0.5-0.5-0.5-0.9-0.5h-0.7V73.3
				L251.3,73.3z M251.3,74.1v2h-1v-4.8h1.8c1.2,0,2,0.4,2,1.5c0,0.9-0.5,1.2-1.2,1.3l1.2,2.1h-1.2l-1.1-2H251.3L251.3,74.1z"/>
		</g>
		<path d="M226.4,36.4V47l12.7-10.6h16.4l-13,10l13.1,20h-15.2l-8.1-12.3l-5.9,4.5v7.7h-12.1V36.4H226.4z"/>
		<path d="M110.3,54.6c2.7-0.7,5.8-2.4,6.9-5.5c0.8-2.3,0.7-5.6-1-8.4c-1.5-2.5-5-4.4-9.3-4.4H78.1l0,30.1h12.1V55.2l6.5,0l7.5,11.2
			H118L110.3,54.6z M101.5,47.7H90.2v-3.5h11.2c1,0,2.5,0.1,2.5,1.7C103.9,47.5,102.6,47.7,101.5,47.7z"/>
		<path d="M143.1,35.7h-1.1c-11.3,0-20.6,3.4-20.6,15.7c0,12.3,9.3,15.7,20.6,15.7h1.1c11.3,0,20.6-3.4,20.6-15.7
			C163.6,39.1,154.3,35.7,143.1,35.7z M150.7,51.5c0,5.4-2.9,8.1-8.2,8.1c-5.2,0-8.2-2.7-8.2-8.1v-0.3c0-5.4,2.9-8.1,8.2-8.1
			c5.2,0,8.2,2.7,8.2,8.1V51.5z"/>
		<path d="M69,49.8c1.7-1.1,3-2.4,3-5.7c0-3.8-4.5-7.8-9.2-7.8H33.4v30.1h28.4c4.7,0,11.8-2.5,11.9-8.7C73.9,52.2,70,50.4,69,49.8z
			 M45.5,44.2h11.2c1,0,2.5,0.1,2.5,1.7c0,1.6-1.3,1.8-2.3,1.8H45.5V44.2z M58,58.8H45.5v-4h12.4c1.1,0,2.8,0.2,2.8,1.9
			C60.7,58.6,59.2,58.7,58,58.8z"/>
		<path d="M196.4,54.5c-0.9,3.4-3.6,5.1-7.8,5.1c-5.2,0-8.2-2.7-8.2-8.1v-0.3c0-5.4,2.9-8.1,8.2-8.1c4.2,0,6.9,1.7,7.8,5.1l13-0.4
			c-1.7-9.4-10.2-12.1-20.3-12.1H188c-11.3,0-20.6,3.4-20.6,15.7c0,12.3,9.3,15.7,20.6,15.7h1.1c10.1,0,18.6-2.7,20.3-12.1
			L196.4,54.5z"/>
	</g>
	<g>
		<path fill="#FFFFFF" d="M144.1,3.5l115.2,12.9l0.3,0.1c4.4,1.4,5.9,5.5,6.3,7.1l7.2,27.7L265.9,79c-0.7,3.3-3.2,6.1-6.3,7.2
			l-0.3,0.1L144.5,99.2l-0.3,0l-0.3,0L28.9,86.3l-0.3-0.1c-3.1-1.1-5.6-3.9-6.3-7.2l-7.2-27.6l7.2-27.7c0.4-1.6,1.9-5.7,6.3-7.1
			l0.3-0.1L144.1,3.5L144.1,3.5L144.1,3.5 M144.1,0l-0.4,0L28.6,12.9l-0.4,0l-0.3,0.1l-0.3,0.1c-6.1,2-8,7.4-8.6,9.6l-7.2,27.7
			l-0.2,0.9l0.2,0.9L19,79.8c1,4.4,4.3,8.2,8.5,9.7l0.3,0.1l0.4,0.1l0.4,0l114.9,12.9l0.3,0l0.4,0l0.4,0l0.3,0l114.9-12.9l0.4,0
			l0.4-0.1l0.3-0.1c4.2-1.4,7.6-5.2,8.6-9.7l7.2-27.6l0.2-0.9l-0.2-0.9l-7.2-27.7c-0.6-2.2-2.5-7.6-8.6-9.6l-0.3-0.1L260,13l-0.4,0
			L144.5,0L144.1,0L144.1,0z"/>
	</g>
</g>
<g>
	<g>
		<g>
			<path d="M32.3,121.3h11.3c2.8,0,4.7,0.7,6,1.9c0.9,0.9,1.4,2.1,1.4,3.6v0.1c0,2.5-1.4,4.1-3.4,4.9c2.7,0.9,4.4,2.4,4.4,5.4v0.1
				c0,3.8-3.1,6.1-8.3,6.1H32.3V121.3z M45,128.1c0-1.2-1-1.9-2.8-1.9h-4v3.9h3.8C44,130.1,45,129.4,45,128.1L45,128.1z M42.9,134.3
				h-4.7v4.1H43c1.9,0,2.9-0.7,2.9-2v-0.1C45.9,135.1,45,134.3,42.9,134.3z"/>
			<path d="M54.8,121.3h10.4c3.4,0,5.7,0.9,7.2,2.4c1.3,1.3,1.9,3,1.9,5.1v0.1c0,3.4-1.8,5.6-4.5,6.8l5.2,7.7h-7l-4.4-6.7h-2.7v6.7
				h-6.1V121.3z M64.9,131.9c2,0,3.3-1,3.3-2.6v-0.1c0-1.8-1.3-2.6-3.3-2.6h-4v5.3H64.9z"/>
			<path d="M75.9,132.4L75.9,132.4c0-6.4,5.1-11.5,11.9-11.5c6.8,0,11.8,5.1,11.8,11.4v0.1c0,6.3-5.1,11.4-11.9,11.4
				C80.9,143.7,75.9,138.7,75.9,132.4z M93.3,132.4L93.3,132.4c0-3.3-2.3-6-5.6-6s-5.6,2.7-5.6,5.9v0.1c0,3.2,2.3,5.9,5.7,5.9
				C91.1,138.2,93.3,135.5,93.3,132.4z"/>
			<path d="M101.2,132.4L101.2,132.4c0-6.5,4.9-11.5,11.6-11.5c4.5,0,7.4,1.9,9.3,4.6l-4.6,3.6c-1.3-1.5-2.7-2.6-4.8-2.6
				c-3.1,0-5.2,2.6-5.2,5.8v0.1c0,3.3,2.2,5.9,5.2,5.9c2.3,0,3.6-1.1,5-2.7l4.6,3.3c-2.1,2.9-4.9,5-9.7,5
				C106.3,143.7,101.2,138.9,101.2,132.4z"/>
			<path d="M124.9,121.3h6.1v8.9l7.6-8.9h7.2l-8.3,9.4l8.6,12.6h-7.3l-5.6-8.2l-2.2,2.5v5.7h-6.1V121.3z"/>
		</g>
		<g>
			<path d="M158.9,140l3.4-4.1c2.2,1.7,4.6,2.6,7.1,2.6c1.7,0,2.5-0.6,2.5-1.5V137c0-0.9-0.7-1.4-3.7-2.1c-4.7-1.1-8.3-2.4-8.3-6.9
				V128c0-4.1,3.2-7,8.5-7c3.7,0,6.7,1,9,2.9l-3,4.3c-2-1.4-4.2-2.2-6.2-2.2c-1.5,0-2.2,0.6-2.2,1.4v0.1c0,1,0.8,1.4,3.8,2.1
				c5,1.1,8.2,2.7,8.2,6.8v0.1c0,4.5-3.6,7.2-8.9,7.2C165.3,143.7,161.6,142.4,158.9,140z"/>
			<path d="M179.5,132.4L179.5,132.4c0-6.4,5.1-11.5,11.9-11.5c6.8,0,11.8,5.1,11.8,11.4v0.1c0,6.3-5.1,11.4-11.9,11.4
				C184.5,143.7,179.5,138.7,179.5,132.4z M197,132.4L197,132.4c0-3.3-2.3-6-5.6-6c-3.4,0-5.6,2.7-5.6,5.9v0.1
				c0,3.2,2.3,5.9,5.7,5.9C194.7,138.2,197,135.5,197,132.4z"/>
			<path d="M205.6,121.3h6.1v16.7h10.6v5.3h-16.7V121.3z"/>
			<path d="M225.1,121.3h6.1v22h-6.1V121.3z"/>
			<path d="M234.4,121.3h8.5c7.8,0,12.4,4.5,12.4,10.9v0.1c0,6.3-4.6,11.1-12.5,11.1h-8.4V121.3z M240.5,126.7v11.2h2.5
				c3.7,0,6.1-2,6.1-5.6v-0.1c0-3.5-2.4-5.6-6.1-5.6H240.5z"/>
		</g>
	</g>
	<g>
		<rect y="130.8" width="24.9" height="5.1"/>
	</g>
	<g>
		<rect x="262.1" y="130.8" width="26.1" height="5.1"/>
	</g>
	<g>
		<path fill-rule="evenodd" clip-rule="evenodd" d="M263.7,125.4c0-1.9-1.3-3.1-2.9-3.1c-1.6,0-2.9,1.2-2.9,3.1
			c0,1.9,1.3,3.1,2.9,3.1C262.4,128.5,263.7,127.3,263.7,125.4L263.7,125.4z M264.9,125.4c0,2.6-1.9,4.1-4.1,4.1
			c-2.2,0-4.1-1.5-4.1-4.1c0-2.6,1.9-4.1,4.1-4.1C263,121.3,264.9,122.8,264.9,125.4L264.9,125.4z"/>
		<path fill-rule="evenodd" clip-rule="evenodd" d="M260.1,125h0.8c0.4,0,0.7-0.1,0.7-0.6c0-0.5-0.5-0.5-0.8-0.5h-0.7V125L260.1,125
			z M260.1,125.7v1.8h-0.9v-4.4h1.6c1.1,0,1.8,0.3,1.8,1.3c0,0.8-0.5,1.1-1.1,1.1l1.1,1.9h-1.1l-1-1.8H260.1L260.1,125.7z"/>
	</g>
</g>
</svg>
